<svg width="50" height="50" viewBox="0 0 50 50" fill="none" xmlns="http://www.w3.org/2000/svg">
<g clip-path="url(#clip0_8_135)">
<path d="M41.6669 25.0002C40.3888 24.9999 39.1278 25.2941 37.9818 25.8599C36.8358 26.4257 35.8355 27.2478 35.0585 28.2626L34.9127 28.2002C35.4857 26.4252 35.5716 24.5289 35.1614 22.7094C34.7512 20.8899 33.86 19.214 32.5809 17.8565C31.3018 16.4991 29.6817 15.51 27.8898 14.9925C26.0978 14.475 24.1998 14.4482 22.394 14.9147L22.2044 14.5564C23.7177 13.21 24.688 11.3579 24.9336 9.34732C25.1791 7.33671 24.683 5.30556 23.5382 3.63453C22.3935 1.9635 20.6786 0.767296 18.715 0.270092C16.7514 -0.227112 14.6739 0.00881727 12.8719 0.933664C11.0698 1.85851 9.6668 3.40879 8.92589 5.29397C8.18497 7.17914 8.15696 9.26981 8.84711 11.1742C9.53725 13.0785 10.8982 14.6658 12.6748 15.6386C14.4515 16.6114 16.5219 16.9029 18.4981 16.4585L18.6502 16.7439C16.567 18.3425 15.1656 20.67 14.7274 23.259C14.2892 25.8481 14.8466 28.5071 16.2877 30.7022L12.3606 34.3751C10.5856 33.3944 8.51378 33.0947 6.53353 33.532C4.55327 33.9693 2.80046 35.1138 1.60354 36.7509C0.406624 38.388 -0.152243 40.4053 0.0316678 42.425C0.215578 44.4446 1.12964 46.3278 2.60257 47.7218C4.07551 49.1158 6.00621 49.9248 8.03289 49.9973C10.0596 50.0697 12.0431 49.4007 13.6118 48.1154C15.1806 46.8302 16.2268 45.0171 16.5545 43.0158C16.8822 41.0144 16.4688 38.9623 15.3919 37.2439L19.221 33.6647C21.3241 35.0704 23.8674 35.6616 26.3749 35.3276C28.8823 34.9936 31.1822 33.7573 32.844 31.8502L33.4252 32.0981C33.173 33.7803 33.4417 35.4994 34.1951 37.0244C34.9485 38.5495 36.1505 39.8075 37.6398 40.6294C39.129 41.4513 40.8341 41.7978 42.526 41.6224C44.218 41.4469 45.8157 40.7579 47.1046 39.6479C48.3935 38.5378 49.3118 37.06 49.7362 35.4128C50.1606 33.7656 50.0708 32.028 49.4788 30.4333C48.8869 28.8386 47.821 27.4633 46.4246 26.4921C45.0281 25.5209 43.3679 25.0002 41.6669 25.0002ZM12.5002 8.33348C12.5002 7.5094 12.7446 6.70381 13.2024 6.01861C13.6603 5.3334 14.311 4.79935 15.0724 4.48399C15.8337 4.16862 16.6715 4.08611 17.4798 4.24688C18.288 4.40765 19.0304 4.80449 19.6132 5.38721C20.1959 5.96992 20.5927 6.71235 20.7535 7.52061C20.9143 8.32886 20.8317 9.16664 20.5164 9.928C20.201 10.6894 19.667 11.3401 18.9818 11.7979C18.2966 12.2558 17.491 12.5002 16.6669 12.5002C15.5618 12.5002 14.502 12.0612 13.7206 11.2798C12.9392 10.4984 12.5002 9.43855 12.5002 8.33348ZM8.33355 45.8335C7.50946 45.8335 6.70388 45.5891 6.01867 45.1313C5.33347 44.6734 4.79941 44.0227 4.48405 43.2613C4.16868 42.5 4.08617 41.6622 4.24694 40.8539C4.40771 40.0457 4.80455 39.3033 5.38727 38.7205C5.96999 38.1378 6.71242 37.741 7.52067 37.5802C8.32892 37.4194 9.1667 37.502 9.92806 37.8173C10.6894 38.1327 11.3402 38.6667 11.798 39.3519C12.2558 40.0371 12.5002 40.8427 12.5002 41.6668C12.5002 42.7719 12.0612 43.8317 11.2798 44.6131C10.4984 45.3945 9.43861 45.8335 8.33355 45.8335ZM25.0002 31.2502C23.6475 31.2475 22.3321 30.806 21.2517 29.9921C20.1713 29.1781 19.3841 28.0356 19.0084 26.7361C18.6326 25.4366 18.6887 24.0502 19.1681 22.7853C19.6474 21.5204 20.5243 20.4451 21.6669 19.721L22.5148 19.2689C23.3668 18.8983 24.2907 18.7223 25.2193 18.7537C26.1479 18.7852 27.0577 19.0232 27.8827 19.4506C28.7077 19.878 29.427 20.4839 29.9883 21.2243C30.5497 21.9647 30.9388 22.8209 31.1275 23.7307C31.3163 24.6404 31.2998 25.5808 31.0793 26.4834C30.8588 27.3859 30.4399 28.228 29.8529 28.9482C29.266 29.6685 28.5259 30.2489 27.6865 30.6471C26.847 31.0453 25.9293 31.2513 25.0002 31.2502ZM41.6669 37.5001C40.8428 37.5001 40.0372 37.2558 39.352 36.7979C38.6668 36.3401 38.1327 35.6894 37.8174 34.928C37.502 34.1666 37.4195 33.3289 37.5803 32.5206C37.741 31.7124 38.1379 30.9699 38.7206 30.3872C39.3033 29.8045 40.0457 29.4076 40.854 29.2469C41.6623 29.0861 42.5 29.1686 43.2614 29.484C44.0228 29.7994 44.6735 30.3334 45.1313 31.0186C45.5892 31.7038 45.8335 32.5094 45.8335 33.3335C45.8335 34.4386 45.3946 35.4984 44.6132 36.2798C43.8318 37.0612 42.7719 37.5001 41.6669 37.5001Z" fill="#141526"/>
</g>
<defs>
<clipPath id="clip0_8_135">
<rect width="50" height="50" fill="white"/>
</clipPath>
</defs>
</svg>
