<svg width="50" height="50" viewBox="0 0 50 50" fill="none" xmlns="http://www.w3.org/2000/svg">
<path d="M38.9851 24.9998H29.1663C28.0612 24.9998 27.0014 24.5608 26.22 23.7794C25.4386 22.998 24.9996 21.9382 24.9996 20.8331V10.9873C25.0025 10.0289 24.7849 9.08271 24.3637 8.22186C23.9425 7.36102 23.3289 6.60856 22.5705 6.02268C21.8518 5.45354 21.0119 5.05722 20.1157 4.86432C19.2195 4.67142 18.2909 4.68711 17.4017 4.91018C12.351 6.16396 7.8795 9.10406 4.72667 13.2443C1.57384 17.3845 -0.0714449 22.4768 0.0628997 27.6791C0.197244 32.8813 2.10317 37.882 5.46549 41.8539C8.82781 45.8259 13.4451 48.5313 18.5538 49.5227C24.2978 50.6221 30.2447 49.484 35.1768 46.3413C40.1089 43.1986 43.6529 38.2892 45.083 32.6185C45.3069 31.7282 45.3232 30.7983 45.1307 29.9007C44.9381 29.003 44.5419 28.1616 43.9726 27.4414C43.3797 26.684 42.623 26.0709 41.7591 25.648C40.8953 25.2251 39.9469 25.0035 38.9851 24.9998ZM41.0434 31.5998C40.2457 34.812 38.6091 37.7547 36.301 40.1269C33.9929 42.4991 31.0962 44.2156 27.907 45.101C24.7178 45.9863 21.3507 46.0087 18.1501 45.1658C14.9494 44.3228 12.0301 42.6449 9.69071 40.3036C7.35131 37.9622 5.67579 35.0415 4.83553 31.8402C3.99526 28.6388 4.02041 25.2718 4.90839 22.0833C5.79638 18.8949 7.51534 15.9995 9.88944 13.6934C12.2635 11.3873 15.2076 9.75312 18.4205 8.9581C18.6953 8.88943 18.9825 8.88607 19.2589 8.94829C19.5352 9.01052 19.7932 9.1366 20.0121 9.31643C20.2707 9.51353 20.4803 9.76753 20.6248 10.0587C20.7694 10.3499 20.8449 10.6705 20.8455 10.9956V20.8331C20.8455 23.0432 21.7235 25.1629 23.2863 26.7257C24.8491 28.2885 26.9687 29.1664 29.1788 29.1664H38.9955C39.3234 29.1678 39.6468 29.2435 39.9412 29.3878C40.2357 29.5321 40.4936 29.7414 40.6955 29.9998C40.8726 30.2217 40.9959 30.4817 41.0559 30.7592C41.1159 31.0368 41.1109 31.3245 41.0413 31.5998H41.0434Z" fill="#141526"/>
<path d="M49.2733 15.5127C48.3142 11.9866 46.4509 8.7721 43.8679 6.18726C41.2849 3.60242 38.0717 1.73687 34.5463 0.775219C34.1767 0.675863 33.7956 0.625433 33.4129 0.625219C32.8624 0.619989 32.3164 0.723902 31.8062 0.930953C31.2961 1.13801 30.8321 1.44409 30.441 1.83152C30.0499 2.21896 29.7394 2.68005 29.5276 3.18817C29.3157 3.6963 29.2066 4.24136 29.2067 4.79188V14.5836C29.2067 16.2412 29.8652 17.8309 31.0373 19.003C32.2094 20.1751 33.7991 20.8336 35.4567 20.8336H45.2879C45.931 20.8274 46.564 20.673 47.1377 20.3825C47.7114 20.0919 48.2104 19.673 48.5959 19.1583C48.9815 18.6436 49.2431 18.0469 49.3606 17.4147C49.4781 16.7824 49.4482 16.1316 49.2733 15.5127ZM44.0692 16.6669H35.4483C34.8958 16.6669 34.3659 16.4474 33.9752 16.0567C33.5845 15.666 33.365 15.1361 33.365 14.5836L33.3483 4.80647C33.3636 4.79544 33.3816 4.78894 33.4004 4.78772H33.4546C36.2923 5.56081 38.8776 7.06462 40.9526 9.14906C43.0275 11.2335 44.5195 13.8257 45.2796 16.6669H44.0692Z" fill="#141526"/>
</svg>
