<svg width="50" height="50" viewBox="0 0 50 50" fill="none" xmlns="http://www.w3.org/2000/svg">
<g clip-path="url(#clip0_8_151)">
<path d="M47.9167 45.8333H10.4167C8.75906 45.8333 7.16935 45.1749 5.99725 44.0028C4.82515 42.8306 4.16667 41.2409 4.16667 39.5833V2.08333C4.16667 1.5308 3.94717 1.0009 3.55647 0.610194C3.16577 0.219493 2.63587 0 2.08333 0C1.5308 0 1.0009 0.219493 0.610194 0.610194C0.219493 1.0009 0 1.5308 0 2.08333L0 39.5833C0.00330804 42.345 1.10184 44.9926 3.05462 46.9454C5.00741 48.8982 7.65501 49.9967 10.4167 50H47.9167C48.4692 50 48.9991 49.7805 49.3898 49.3898C49.7805 48.9991 50 48.4692 50 47.9167C50 47.3641 49.7805 46.8342 49.3898 46.4435C48.9991 46.0528 48.4692 45.8333 47.9167 45.8333Z" fill="#141526"/>
<path d="M12.5003 41.6665C13.0529 41.6665 13.5828 41.447 13.9735 41.0563C14.3642 40.6656 14.5837 40.1357 14.5837 39.5832V24.9998C14.5837 24.4473 14.3642 23.9174 13.9735 23.5267C13.5828 23.136 13.0529 22.9165 12.5003 22.9165C11.9478 22.9165 11.4179 23.136 11.0272 23.5267C10.6365 23.9174 10.417 24.4473 10.417 24.9998V39.5832C10.417 40.1357 10.6365 40.6656 11.0272 41.0563C11.4179 41.447 11.9478 41.6665 12.5003 41.6665Z" fill="#141526"/>
<path d="M20.833 20.8333V39.5833C20.833 40.1358 21.0525 40.6657 21.4432 41.0564C21.8339 41.4471 22.3638 41.6666 22.9164 41.6666C23.4689 41.6666 23.9988 41.4471 24.3895 41.0564C24.7802 40.6657 24.9997 40.1358 24.9997 39.5833V20.8333C24.9997 20.2808 24.7802 19.7509 24.3895 19.3602C23.9988 18.9695 23.4689 18.75 22.9164 18.75C22.3638 18.75 21.8339 18.9695 21.4432 19.3602C21.0525 19.7509 20.833 20.2808 20.833 20.8333Z" fill="#141526"/>
<path d="M31.25 27.0833V39.5833C31.25 40.1358 31.4695 40.6657 31.8602 41.0564C32.2509 41.4471 32.7808 41.6666 33.3333 41.6666C33.8859 41.6666 34.4158 41.4471 34.8065 41.0564C35.1972 40.6657 35.4167 40.1358 35.4167 39.5833V27.0833C35.4167 26.5308 35.1972 26.0009 34.8065 25.6102C34.4158 25.2195 33.8859 25 33.3333 25C32.7808 25 32.2509 25.2195 31.8602 25.6102C31.4695 26.0009 31.25 26.5308 31.25 27.0833Z" fill="#141526"/>
<path d="M41.667 18.7498V39.5831C41.667 40.1357 41.8865 40.6656 42.2772 41.0563C42.6679 41.447 43.1978 41.6665 43.7504 41.6665C44.3029 41.6665 44.8328 41.447 45.2235 41.0563C45.6142 40.6656 45.8337 40.1357 45.8337 39.5831V18.7498C45.8337 18.1973 45.6142 17.6674 45.2235 17.2767C44.8328 16.886 44.3029 16.6665 43.7504 16.6665C43.1978 16.6665 42.6679 16.886 42.2772 17.2767C41.8865 17.6674 41.667 18.1973 41.667 18.7498Z" fill="#141526"/>
<path d="M12.4996 18.7499C13.0521 18.7497 13.5819 18.5302 13.9726 18.1394L21.4434 10.6686C21.8405 10.2903 22.3679 10.0793 22.9163 10.0793C23.4647 10.0793 23.9921 10.2903 24.3892 10.6686L28.9142 15.1936C30.0863 16.3653 31.6757 17.0235 33.333 17.0235C34.9902 17.0235 36.5797 16.3653 37.7517 15.1936L49.3892 3.5561C49.7687 3.16318 49.9787 2.63693 49.974 2.09068C49.9692 1.54444 49.7501 1.02191 49.3638 0.635646C48.9776 0.249379 48.455 0.0302771 47.9088 0.0255304C47.3626 0.0207837 46.8363 0.230772 46.4434 0.610268L34.8059 12.2457C34.4152 12.6363 33.8854 12.8557 33.333 12.8557C32.7805 12.8557 32.2507 12.6363 31.8601 12.2457L27.3351 7.72277C26.163 6.55107 24.5736 5.89285 22.9163 5.89285C21.259 5.89285 19.6696 6.55107 18.4976 7.72277L11.0267 15.1936C10.7355 15.485 10.5371 15.8561 10.4568 16.2602C10.3764 16.6643 10.4177 17.0831 10.5753 17.4637C10.733 17.8443 10.9999 18.1697 11.3424 18.3986C11.685 18.6275 12.0877 18.7498 12.4996 18.7499Z" fill="#141526"/>
</g>
<defs>
<clipPath id="clip0_8_151">
<rect width="50" height="50" fill="white"/>
</clipPath>
</defs>
</svg>
