<svg width="50" height="50" viewBox="0 0 50 50" fill="none" xmlns="http://www.w3.org/2000/svg">
<g clip-path="url(#clip0_17_149)">
<path d="M37.5 14.5825C37.5 14.9946 37.3778 15.3974 37.1489 15.74C36.92 16.0826 36.5946 16.3496 36.2139 16.5073C35.8332 16.6649 35.4144 16.7062 35.0102 16.6258C34.6061 16.5454 34.2349 16.347 33.9435 16.0557C33.6522 15.7643 33.4537 15.3931 33.3734 14.989C33.293 14.5848 33.3342 14.1659 33.4919 13.7853C33.6496 13.4046 33.9166 13.0792 34.2592 12.8503C34.6018 12.6214 35.0046 12.4992 35.4167 12.4992C35.9692 12.4992 36.4991 12.7187 36.8898 13.1094C37.2805 13.5001 37.5 14.03 37.5 14.5825ZM29.1667 18.7492C28.7546 18.7492 28.3518 18.8714 28.0092 19.1003C27.6666 19.3292 27.3996 19.6546 27.2419 20.0353C27.0842 20.4159 27.043 20.8348 27.1234 21.239C27.2037 21.6431 27.4022 22.0143 27.6935 22.3057C27.9849 22.597 28.3561 22.7954 28.7602 22.8758C29.1644 22.9562 29.5832 22.9149 29.9639 22.7573C30.3446 22.5996 30.67 22.3326 30.8989 21.99C31.1278 21.6474 31.25 21.2446 31.25 20.8325C31.25 20.28 31.0305 19.7501 30.6398 19.3594C30.2491 18.9687 29.7192 18.7492 29.1667 18.7492ZM22.9167 24.9992C22.5046 24.9992 22.1018 25.1214 21.7592 25.3503C21.4166 25.5792 21.1496 25.9046 20.9919 26.2853C20.8342 26.6659 20.793 27.0848 20.8734 27.489C20.9537 27.8931 21.1522 28.2643 21.4435 28.5557C21.7349 28.847 22.1061 29.0454 22.5102 29.1258C22.9144 29.2062 23.3332 29.1649 23.7139 29.0073C24.0946 28.8496 24.42 28.5826 24.6489 28.24C24.8778 27.8974 25 27.4946 25 27.0825C25 26.53 24.7805 26.0001 24.3898 25.6094C23.9991 25.2187 23.4692 24.9992 22.9167 24.9992ZM49.7208 6.16168L49.5646 6.60127C46.4354 15.2846 43.4333 23.5408 37.5 30.8742V31.2492C37.4963 34.4402 36.8275 37.5955 35.5361 40.5136C34.2448 43.4317 32.3593 46.0485 30 48.1971C28.7511 49.3494 27.1159 49.9923 25.4167 49.9992C23.6481 49.9937 21.9537 49.2878 20.7043 48.0361C19.4549 46.7843 18.7522 45.0886 18.75 43.32V40.9221C17.2127 40.4263 15.8133 39.5764 14.6646 38.4408L14.5833 38.3617L9.80625 43.1388C9.41333 43.5183 8.88707 43.7283 8.34083 43.7235C7.79459 43.7188 7.27206 43.4997 6.88579 43.1134C6.49953 42.7271 6.28043 42.2046 6.27568 41.6584C6.27093 41.1121 6.48092 40.5859 6.86042 40.1929L11.6375 35.4159L11.5562 35.3367C10.4199 34.1866 9.56811 32.7869 9.06875 31.2492H7.00625C5.14894 31.2475 3.36815 30.5091 2.05465 29.196C0.741138 27.8829 0.0022064 26.1023 0 24.245C0.00368516 22.4311 0.703132 20.6877 1.95417 19.3742C4.13229 17.1372 6.74748 15.3725 9.63699 14.1897C12.5265 13.0069 15.6285 12.4315 18.75 12.4992H19.125C26.4583 6.56794 34.7083 3.56585 43.3875 0.438768L43.8375 0.278352C44.6587 -0.0235623 45.5492 -0.0840954 46.4038 0.103905C47.2583 0.291905 48.0412 0.720582 48.6599 1.33928C49.2786 1.95799 49.7073 2.74086 49.8953 3.5954C50.0833 4.44995 50.0227 5.34045 49.7208 6.16168ZM7.00625 27.0825H8.54167C8.69818 25.2469 9.3387 23.4857 10.3979 21.9784C11.5605 20.3057 12.8189 18.7016 14.1667 17.1742C10.6719 17.8975 7.47699 19.6591 5 22.2284C4.47304 22.7683 4.17456 23.4906 4.16667 24.245C4.16777 24.9976 4.46736 25.719 4.99971 26.251C5.53205 26.7829 6.25367 27.082 7.00625 27.0825ZM32.7083 35.9409C31.214 37.2489 29.6477 38.4724 28.0167 39.6054C26.5081 40.6544 24.7482 41.2841 22.9167 41.4304V43.32C22.9178 43.9864 23.1831 44.6251 23.6545 45.0961C24.1259 45.5671 24.7649 45.832 25.4312 45.8325C26.0919 45.8228 26.725 45.5664 27.2062 45.1138C29.892 42.6552 31.8039 39.4679 32.7083 35.9409ZM45.7021 4.2971C45.6466 4.23535 45.5732 4.19251 45.4921 4.17458C45.411 4.15665 45.3264 4.16452 45.25 4.1971L44.8021 4.3596C34.7104 7.99502 25.9958 11.1367 18.4917 18.6388C16.7703 20.4139 15.2035 22.3327 13.8083 24.3742C12.9597 25.5787 12.5639 27.0443 12.6909 28.5123C12.8178 29.9802 13.4593 31.3561 14.5021 32.3971L17.6104 35.5013C18.6509 36.5433 20.0258 37.1845 21.4929 37.3118C22.9599 37.4391 24.4248 37.0443 25.6292 36.1971C27.6695 34.8022 29.5869 33.2353 31.3604 31.5138C38.8604 24.0138 42.0062 15.2909 45.6437 5.19502L45.8021 4.75543C45.8358 4.67824 45.8443 4.59237 45.8263 4.51007C45.8084 4.42777 45.7649 4.35324 45.7021 4.2971Z" fill="#141526"/>
</g>
<defs>
<clipPath id="clip0_17_149">
<rect width="50" height="50" fill="white"/>
</clipPath>
</defs>
</svg>
