<svg width="50" height="50" viewBox="0 0 50 50" fill="none" xmlns="http://www.w3.org/2000/svg">
<g clip-path="url(#clip0_5_71)">
<path d="M20.5796 37.7541C21.16 38.3349 21.8492 38.7957 22.6077 39.11C23.3663 39.4243 24.1793 39.5861 25.0004 39.5861C25.8215 39.5861 26.6346 39.4243 27.3931 39.11C28.1517 38.7957 28.8408 38.3349 29.4213 37.7541L36.1108 31.0646C36.4695 30.6679 36.6619 30.1485 36.6482 29.6138C36.6344 29.0792 36.4157 28.5704 36.0371 28.1926C35.6585 27.8149 35.1492 27.5972 34.6146 27.5846C34.0799 27.572 33.5609 27.7655 33.165 28.125L27.0692 34.2229L27.0838 2.0833C27.0838 1.53077 26.8643 1.00086 26.4736 0.610164C26.0829 0.219463 25.553 -3.05176e-05 25.0004 -3.05176e-05V-3.05176e-05C24.4479 -3.05176e-05 23.918 0.219463 23.5273 0.610164C23.1366 1.00086 22.9171 1.53077 22.9171 2.0833L22.8983 34.1833L16.8358 28.125C16.4449 27.7343 15.9148 27.515 15.3622 27.5152C14.8095 27.5154 14.2796 27.7351 13.889 28.126C13.4983 28.5169 13.279 29.047 13.2792 29.5997C13.2794 30.1523 13.4991 30.6822 13.89 31.0729L20.5796 37.7541Z" fill="#141526"/>
<path d="M47.9167 33.333C47.3641 33.333 46.8342 33.5525 46.4435 33.9432C46.0528 34.3339 45.8333 34.8638 45.8333 35.4164V43.7497C45.8333 44.3022 45.6138 44.8321 45.2231 45.2228C44.8324 45.6135 44.3025 45.833 43.75 45.833H6.25C5.69747 45.833 5.16756 45.6135 4.77686 45.2228C4.38616 44.8321 4.16667 44.3022 4.16667 43.7497V35.4164C4.16667 34.8638 3.94717 34.3339 3.55647 33.9432C3.16577 33.5525 2.63587 33.333 2.08333 33.333C1.5308 33.333 1.0009 33.5525 0.610194 33.9432C0.219493 34.3339 0 34.8638 0 35.4164L0 43.7497C0 45.4073 0.65848 46.997 1.83058 48.1691C3.00268 49.3412 4.5924 49.9997 6.25 49.9997H43.75C45.4076 49.9997 46.9973 49.3412 48.1694 48.1691C49.3415 46.997 50 45.4073 50 43.7497V35.4164C50 34.8638 49.7805 34.3339 49.3898 33.9432C48.9991 33.5525 48.4692 33.333 47.9167 33.333Z" fill="#141526"/>
</g>
<defs>
<clipPath id="clip0_5_71">
<rect width="50" height="50" fill="white"/>
</clipPath>
</defs>
</svg>
